<mxfile host="app.diagrams.net" agent="Mozilla/5.0 (Windows NT 10.0; Win64; x64) AppleWebKit/537.36 (KHTML, like Gecko) Chrome/137.0.0.0 Safari/537.36 Edg/137.0.0.0" version="27.1.6">
  <diagram name="Page-1" id="yAkueWH8tclE_65RSBvn">
    <mxGraphModel dx="2633" dy="1028" grid="1" gridSize="10" guides="1" tooltips="1" connect="1" arrows="1" fold="1" page="1" pageScale="1" pageWidth="1100" pageHeight="850" math="0" shadow="0">
      <root>
        <mxCell id="0" />
        <mxCell id="1" parent="0" />
        <mxCell id="7VhkDWfRYn6-bfuRAL9O-2" value="" style="rounded=1;whiteSpace=wrap;html=1;movable=0;resizable=0;rotatable=0;deletable=0;editable=0;locked=1;connectable=0;" parent="1" vertex="1">
          <mxGeometry x="470" y="14.38" width="620" height="475.62" as="geometry" />
        </mxCell>
        <mxCell id="7VhkDWfRYn6-bfuRAL9O-1" value="" style="rounded=1;whiteSpace=wrap;html=1;" parent="1" vertex="1">
          <mxGeometry x="30" y="18.75" width="440" height="291.25" as="geometry" />
        </mxCell>
        <mxCell id="uHRIR_JINjC9fajswvWd-5" value="" style="rounded=1;whiteSpace=wrap;html=1;sketch=1;curveFitting=1;jiggle=2;" parent="1" vertex="1">
          <mxGeometry x="10" y="560" width="830" height="260" as="geometry" />
        </mxCell>
        <mxCell id="sH69yQ1ZhXcAEsHfrU8D-1" value="" style="rounded=0;whiteSpace=wrap;html=1;sketch=1;curveFitting=1;jiggle=2;" parent="1" vertex="1">
          <mxGeometry x="80" y="88.75" width="340" height="200" as="geometry" />
        </mxCell>
        <mxCell id="mBHjW366EDlgSjZvG0Kb-1" value="&lt;font face=&quot;Lucida Console&quot;&gt;Geotechnical / Civil (Drainage)&lt;/font&gt;&lt;div&gt;&lt;br&gt;&lt;/div&gt;" style="text;html=1;align=center;verticalAlign=middle;whiteSpace=wrap;rounded=0;fontStyle=5;fontSize=17;" parent="1" vertex="1">
          <mxGeometry x="165" y="560" width="520" height="70" as="geometry" />
        </mxCell>
        <mxCell id="uHRIR_JINjC9fajswvWd-6" value="&lt;pre&gt;MAIN SLAB&lt;/pre&gt;" style="text;html=1;align=center;verticalAlign=middle;whiteSpace=wrap;rounded=0;" parent="1" vertex="1">
          <mxGeometry x="210" y="128.75" width="90" height="45" as="geometry" />
        </mxCell>
        <mxCell id="uHRIR_JINjC9fajswvWd-14" value="&lt;pre&gt;&lt;b style=&quot;&quot;&gt;&lt;u style=&quot;&quot;&gt;&lt;font face=&quot;Lucida Console&quot; style=&quot;font-size: 17px;&quot;&gt;** NOT TO SCALE **&lt;/font&gt;&lt;/u&gt;&lt;/b&gt;&lt;/pre&gt;" style="text;strokeColor=none;fillColor=none;align=center;verticalAlign=middle;spacingLeft=4;spacingRight=4;overflow=hidden;points=[[0,0.5],[1,0.5]];portConstraint=eastwest;rotatable=0;whiteSpace=wrap;html=1;" parent="1" vertex="1">
          <mxGeometry x="285" y="780" width="280" height="40" as="geometry" />
        </mxCell>
        <mxCell id="vKAQ_r-t-Htgs6Gfas-m-2" value="&lt;u&gt;&lt;font face=&quot;Lucida Console&quot; style=&quot;font-size: 18px;&quot;&gt;CMU POOL&lt;/font&gt;&lt;/u&gt;&lt;div style=&quot;text-align: left;&quot;&gt;&lt;span style=&quot;font-size: 10px;&quot;&gt;&lt;font face=&quot;Lucida Console&quot;&gt;Cruz Wootten&lt;/font&gt;&lt;/span&gt;&lt;/div&gt;&lt;div style=&quot;text-align: left;&quot;&gt;&lt;font face=&quot;Lucida Console&quot;&gt;&lt;span style=&quot;font-size: 10px; background-color: transparent; color: light-dark(rgb(0, 0, 0), rgb(255, 255, 255));&quot;&gt;17575 Parrot Drive&amp;nbsp;&lt;/span&gt;&lt;br&gt;&lt;span style=&quot;font-size: 10px; background-color: transparent; color: light-dark(rgb(0, 0, 0), rgb(255, 255, 255));&quot;&gt;Reno, Nevada&lt;/span&gt;&lt;/font&gt;&lt;/div&gt;&lt;div style=&quot;text-align: left;&quot;&gt;&lt;span style=&quot;background-color: transparent; color: light-dark(rgb(0, 0, 0), rgb(255, 255, 255)); font-size: 10px;&quot;&gt;&lt;font face=&quot;Lucida Console&quot;&gt;775.501.4398&lt;/font&gt;&lt;/span&gt;&lt;/div&gt;" style="swimlane;whiteSpace=wrap;html=1;startSize=100;align=center;" parent="1" vertex="1">
          <mxGeometry x="890" y="640" width="200" height="200" as="geometry" />
        </mxCell>
        <mxCell id="vKAQ_r-t-Htgs6Gfas-m-3" value="&lt;font style=&quot;font-size: 21px;&quot;&gt;&amp;nbsp; B/C 1.01&lt;/font&gt;" style="text;html=1;align=left;verticalAlign=middle;whiteSpace=wrap;rounded=0;" parent="vKAQ_r-t-Htgs6Gfas-m-2" vertex="1">
          <mxGeometry y="100" width="200" height="100" as="geometry" />
        </mxCell>
        <mxCell id="vKAQ_r-t-Htgs6Gfas-m-4" value="Geo/Cvl" style="text;html=1;align=center;verticalAlign=middle;whiteSpace=wrap;rounded=0;" parent="vKAQ_r-t-Htgs6Gfas-m-2" vertex="1">
          <mxGeometry x="10" y="110" width="70" height="30" as="geometry" />
        </mxCell>
        <mxCell id="vKAQ_r-t-Htgs6Gfas-m-5" value="" style="endArrow=none;html=1;rounded=0;exitX=0.5;exitY=1;exitDx=0;exitDy=0;" parent="vKAQ_r-t-Htgs6Gfas-m-2" source="vKAQ_r-t-Htgs6Gfas-m-3" edge="1">
          <mxGeometry width="50" height="50" relative="1" as="geometry">
            <mxPoint x="50" y="150" as="sourcePoint" />
            <mxPoint x="100" y="100" as="targetPoint" />
          </mxGeometry>
        </mxCell>
        <mxCell id="vKAQ_r-t-Htgs6Gfas-m-6" value="&lt;div&gt;&lt;font style=&quot;font-size: 13px;&quot;&gt;Drawing&lt;/font&gt;&lt;/div&gt;&lt;div&gt;&lt;font style=&quot;font-size: 13px;&quot;&gt;Page&lt;/font&gt;&lt;/div&gt;&lt;div&gt;&lt;span style=&quot;font-size: 24px; background-color: transparent; color: light-dark(rgb(0, 0, 0), rgb(255, 255, 255));&quot;&gt;4 / X&lt;/span&gt;&lt;/div&gt;" style="text;html=1;align=center;verticalAlign=middle;whiteSpace=wrap;rounded=0;fillColor=default;" parent="1" vertex="1">
          <mxGeometry x="990" y="740" width="100" height="100" as="geometry" />
        </mxCell>
        <mxCell id="vKAQ_r-t-Htgs6Gfas-m-12" value="" style="rounded=0;whiteSpace=wrap;html=1;fillColor=#d80073;fontColor=#ffffff;strokeColor=#A50040;fillStyle=cross-hatch;" parent="1" vertex="1">
          <mxGeometry x="40" y="188.75" width="420" height="20" as="geometry" />
        </mxCell>
        <mxCell id="dpI8m116e4qu7KSGH_1Q-10" style="edgeStyle=orthogonalEdgeStyle;rounded=0;orthogonalLoop=1;jettySize=auto;html=1;" edge="1" parent="1" source="vKAQ_r-t-Htgs6Gfas-m-16" target="vKAQ_r-t-Htgs6Gfas-m-12">
          <mxGeometry relative="1" as="geometry" />
        </mxCell>
        <mxCell id="vKAQ_r-t-Htgs6Gfas-m-16" value="&lt;font face=&quot;Lucida Console&quot;&gt;Perforated 4&quot; PVC Drain *&lt;/font&gt;" style="rounded=1;whiteSpace=wrap;html=1;sketch=1;curveFitting=1;jiggle=2;" parent="1" vertex="1">
          <mxGeometry x="140" y="460" width="210" height="30" as="geometry" />
        </mxCell>
        <mxCell id="vKAQ_r-t-Htgs6Gfas-m-18" value="&lt;pre&gt;* 4&quot; Perforated PVC Drain to run under entire main slab for groundwater control&lt;/pre&gt;" style="text;html=1;align=center;verticalAlign=middle;whiteSpace=wrap;rounded=0;strokeColor=none;" parent="1" vertex="1">
          <mxGeometry x="90" y="600" width="400" height="30" as="geometry" />
        </mxCell>
        <mxCell id="vKAQ_r-t-Htgs6Gfas-m-23" value="&lt;pre&gt;&lt;u&gt;&lt;b&gt;OVERVIEW&lt;/b&gt;&lt;/u&gt;&lt;/pre&gt;" style="text;html=1;align=center;verticalAlign=middle;whiteSpace=wrap;rounded=0;" parent="1" vertex="1">
          <mxGeometry x="205" y="43.75" width="90" height="45" as="geometry" />
        </mxCell>
        <mxCell id="vKAQ_r-t-Htgs6Gfas-m-24" value="&lt;pre&gt;&lt;b&gt;&lt;u&gt;CROSS SECTION&lt;/u&gt;&lt;/b&gt;&lt;/pre&gt;" style="text;html=1;align=center;verticalAlign=middle;whiteSpace=wrap;rounded=0;" parent="1" vertex="1">
          <mxGeometry x="720" y="18.749999999999996" width="120" height="45" as="geometry" />
        </mxCell>
        <mxCell id="vKAQ_r-t-Htgs6Gfas-m-20" style="edgeStyle=orthogonalEdgeStyle;rounded=0;orthogonalLoop=1;jettySize=auto;html=1;exitX=1;exitY=0.25;exitDx=0;exitDy=0;entryX=0.143;entryY=0.9;entryDx=0;entryDy=0;entryPerimeter=0;" parent="1" source="vKAQ_r-t-Htgs6Gfas-m-16" target="vKAQ_r-t-Htgs6Gfas-m-28" edge="1">
          <mxGeometry relative="1" as="geometry">
            <mxPoint x="640" y="450" as="targetPoint" />
          </mxGeometry>
        </mxCell>
        <mxCell id="vKAQ_r-t-Htgs6Gfas-m-31" value="&lt;font style=&quot;font-size: 19px; color: light-dark(rgb(0, 0, 0), rgb(255, 255, 255));&quot; face=&quot;Lucida Console&quot;&gt;POOL&lt;/font&gt;" style="rounded=0;whiteSpace=wrap;html=1;sketch=1;curveFitting=1;jiggle=2;fillColor=#0050ef;fontColor=#ffffff;strokeColor=#001DBC;" parent="1" vertex="1">
          <mxGeometry x="593.75" y="160" width="362.5" height="140" as="geometry" />
        </mxCell>
        <mxCell id="vKAQ_r-t-Htgs6Gfas-m-32" value="" style="rounded=0;whiteSpace=wrap;html=1;rotation=-90;fillColor=#647687;fontColor=#ffffff;strokeColor=#314354;" parent="1" vertex="1">
          <mxGeometry x="560" y="260.63" width="38.75" height="30" as="geometry" />
        </mxCell>
        <mxCell id="vKAQ_r-t-Htgs6Gfas-m-33" value="" style="rounded=0;whiteSpace=wrap;html=1;rotation=-90;fillColor=#647687;fontColor=#ffffff;strokeColor=#314354;" parent="1" vertex="1">
          <mxGeometry x="560" y="220" width="38.75" height="30" as="geometry" />
        </mxCell>
        <mxCell id="vKAQ_r-t-Htgs6Gfas-m-34" value="" style="rounded=0;whiteSpace=wrap;html=1;rotation=-90;fillColor=#647687;fontColor=#ffffff;strokeColor=#314354;" parent="1" vertex="1">
          <mxGeometry x="560" y="180" width="38.75" height="30" as="geometry" />
        </mxCell>
        <mxCell id="vKAQ_r-t-Htgs6Gfas-m-35" value="" style="rounded=0;whiteSpace=wrap;html=1;rotation=-90;fillColor=#647687;fontColor=#ffffff;strokeColor=#314354;" parent="1" vertex="1">
          <mxGeometry x="560" y="140" width="38.75" height="30" as="geometry" />
        </mxCell>
        <mxCell id="vKAQ_r-t-Htgs6Gfas-m-36" value="" style="rounded=0;whiteSpace=wrap;html=1;rotation=-90;fillColor=#647687;fontColor=#ffffff;strokeColor=#314354;" parent="1" vertex="1">
          <mxGeometry x="950" y="260.63" width="38.75" height="30" as="geometry" />
        </mxCell>
        <mxCell id="vKAQ_r-t-Htgs6Gfas-m-37" value="" style="rounded=0;whiteSpace=wrap;html=1;rotation=-90;fillColor=#647687;fontColor=#ffffff;strokeColor=#314354;" parent="1" vertex="1">
          <mxGeometry x="950" y="220" width="38.75" height="30" as="geometry" />
        </mxCell>
        <mxCell id="vKAQ_r-t-Htgs6Gfas-m-38" value="" style="rounded=0;whiteSpace=wrap;html=1;rotation=-90;fillColor=#647687;fontColor=#ffffff;strokeColor=#314354;" parent="1" vertex="1">
          <mxGeometry x="950" y="180" width="38.75" height="30" as="geometry" />
        </mxCell>
        <mxCell id="vKAQ_r-t-Htgs6Gfas-m-39" value="" style="rounded=0;whiteSpace=wrap;html=1;rotation=-90;fillColor=#647687;fontColor=#ffffff;strokeColor=#314354;" parent="1" vertex="1">
          <mxGeometry x="950" y="140" width="38.75" height="30" as="geometry" />
        </mxCell>
        <mxCell id="vKAQ_r-t-Htgs6Gfas-m-40" value="" style="rounded=0;whiteSpace=wrap;html=1;rotation=0;fillColor=#647687;fontColor=#ffffff;strokeColor=#314354;" parent="1" vertex="1">
          <mxGeometry x="570" y="270" width="410" height="30" as="geometry" />
        </mxCell>
        <mxCell id="vKAQ_r-t-Htgs6Gfas-m-41" value="&lt;pre&gt;* Surround Drain with Permeable Fill for hydrostatic relief&lt;/pre&gt;" style="text;html=1;align=center;verticalAlign=middle;whiteSpace=wrap;rounded=0;strokeColor=none;" parent="1" vertex="1">
          <mxGeometry x="20" y="630" width="410" height="30" as="geometry" />
        </mxCell>
        <mxCell id="vKAQ_r-t-Htgs6Gfas-m-42" value="&lt;pre&gt;* Compacted Fill on top of Drain and under slab&lt;/pre&gt;" style="text;html=1;align=center;verticalAlign=middle;whiteSpace=wrap;rounded=0;strokeColor=none;" parent="1" vertex="1">
          <mxGeometry x="20" y="660" width="330" height="30" as="geometry" />
        </mxCell>
        <mxCell id="dpI8m116e4qu7KSGH_1Q-1" value="&lt;font face=&quot;Lucida Console&quot; style=&quot;font-size: 19px; color: light-dark(rgb(0, 0, 0), rgb(11, 255, 128)); background-color: light-dark(#ffffff, var(--ge-dark-color, #121212));&quot;&gt;Compacted Fill&lt;/font&gt;" style="rounded=0;whiteSpace=wrap;html=1;fillColor=light-dark(#A0522D,#7F00FF);fontColor=#ffffff;strokeColor=#6D1F00;sketch=1;curveFitting=1;jiggle=2;fillStyle=zigzag-line;align=center;verticalAlign=middle;fontFamily=Helvetica;fontSize=12;" vertex="1" parent="1">
          <mxGeometry x="490" y="300" width="260" height="80" as="geometry" />
        </mxCell>
        <mxCell id="dpI8m116e4qu7KSGH_1Q-2" value="&lt;font face=&quot;Lucida Console&quot; style=&quot;background-color: light-dark(#ffffff, var(--ge-dark-color, #121212)); color: light-dark(rgb(0, 0, 0), rgb(255, 255, 255)); font-size: 9px;&quot;&gt;Permeable&lt;/font&gt;&lt;div&gt;&lt;font face=&quot;Lucida Console&quot; style=&quot;background-color: light-dark(#ffffff, var(--ge-dark-color, #121212)); color: light-dark(rgb(0, 0, 0), rgb(255, 255, 255)); font-size: 9px;&quot;&gt;Fill&lt;/font&gt;&lt;/div&gt;" style="rounded=0;whiteSpace=wrap;html=1;fillColor=#a0522d;fontColor=#ffffff;strokeColor=#6D1F00;sketch=1;curveFitting=1;jiggle=2;" vertex="1" parent="1">
          <mxGeometry x="490" y="380" width="490" height="60" as="geometry" />
        </mxCell>
        <mxCell id="dpI8m116e4qu7KSGH_1Q-3" value="&lt;font face=&quot;Lucida Console&quot; style=&quot;background-color: light-dark(#ffffff, var(--ge-dark-color, #121212)); color: light-dark(rgb(0, 0, 0), rgb(255, 255, 255)); font-size: 8px;&quot;&gt;Permeable&lt;/font&gt;&lt;div&gt;&lt;font face=&quot;Lucida Console&quot; style=&quot;background-color: light-dark(#ffffff, var(--ge-dark-color, #121212)); color: light-dark(rgb(0, 0, 0), rgb(255, 255, 255)); font-size: 8px;&quot;&gt;Fill&lt;/font&gt;&lt;/div&gt;" style="rounded=0;whiteSpace=wrap;html=1;fillColor=#a0522d;fontColor=#ffffff;strokeColor=#6D1F00;sketch=1;curveFitting=1;jiggle=2;" vertex="1" parent="1">
          <mxGeometry x="750" y="330" width="60" height="50" as="geometry" />
        </mxCell>
        <mxCell id="dpI8m116e4qu7KSGH_1Q-4" value="&lt;font face=&quot;Lucida Console&quot; style=&quot;color: light-dark(rgb(0, 0, 0), rgb(11, 255, 128)); background-color: light-dark(#ffffff, var(--ge-dark-color, #121212));&quot;&gt;Compacted Fill&lt;/font&gt;" style="rounded=0;whiteSpace=wrap;html=1;fillColor=light-dark(#A0522D,#7F00FF);fontColor=#ffffff;strokeColor=#6D1F00;sketch=1;curveFitting=1;jiggle=2;fillStyle=zigzag-line;align=center;verticalAlign=middle;fontFamily=Helvetica;fontSize=8;" vertex="1" parent="1">
          <mxGeometry x="750" y="300" width="60" height="30" as="geometry" />
        </mxCell>
        <mxCell id="vKAQ_r-t-Htgs6Gfas-m-28" value="" style="rounded=1;whiteSpace=wrap;html=1;fillStyle=cross-hatch;fillColor=light-dark(#FFFFFF,#7EA6E0);" parent="1" vertex="1">
          <mxGeometry x="470" y="395" width="510" height="30" as="geometry" />
        </mxCell>
        <mxCell id="dpI8m116e4qu7KSGH_1Q-5" value="&lt;font face=&quot;Lucida Console&quot; style=&quot;font-size: 19px; color: light-dark(rgb(0, 0, 0), rgb(11, 255, 128)); background-color: light-dark(#ffffff, var(--ge-dark-color, #121212));&quot;&gt;Compacted Fill&lt;/font&gt;" style="rounded=0;whiteSpace=wrap;html=1;fillColor=light-dark(#A0522D,#7F00FF);fontColor=#ffffff;strokeColor=#6D1F00;sketch=1;curveFitting=1;jiggle=2;fillStyle=zigzag-line;align=center;verticalAlign=middle;fontFamily=Helvetica;fontSize=12;" vertex="1" parent="1">
          <mxGeometry x="810" y="300" width="170" height="80" as="geometry" />
        </mxCell>
        <mxCell id="dpI8m116e4qu7KSGH_1Q-6" value="" style="rounded=0;whiteSpace=wrap;html=1;rotation=0;fillColor=#647687;fontColor=#ffffff;strokeColor=#314354;" vertex="1" parent="1">
          <mxGeometry x="490" y="210" width="75" height="30" as="geometry" />
        </mxCell>
        <mxCell id="dpI8m116e4qu7KSGH_1Q-8" value="&lt;font face=&quot;Lucida Console&quot; style=&quot;background-color: light-dark(#ffffff, var(--ge-dark-color, #121212)); color: light-dark(rgb(0, 0, 0), rgb(255, 255, 255)); font-size: 8px;&quot;&gt;Permeable&lt;/font&gt;&lt;div&gt;&lt;font face=&quot;Lucida Console&quot; style=&quot;background-color: light-dark(#ffffff, var(--ge-dark-color, #121212)); color: light-dark(rgb(0, 0, 0), rgb(255, 255, 255)); font-size: 8px;&quot;&gt;Fill&lt;/font&gt;&lt;/div&gt;" style="rounded=0;whiteSpace=wrap;html=1;fillColor=#a0522d;fontColor=#ffffff;strokeColor=#6D1F00;sketch=1;curveFitting=1;jiggle=2;" vertex="1" parent="1">
          <mxGeometry x="525" y="240.63" width="40" height="59.37" as="geometry" />
        </mxCell>
        <mxCell id="dpI8m116e4qu7KSGH_1Q-9" value="&lt;font face=&quot;Lucida Console&quot; style=&quot;color: light-dark(rgb(0, 0, 0), rgb(11, 255, 128)); background-color: light-dark(#ffffff, var(--ge-dark-color, #121212));&quot;&gt;Compacted Fill&lt;/font&gt;" style="rounded=0;whiteSpace=wrap;html=1;fillColor=light-dark(#A0522D,#7F00FF);fontColor=#ffffff;strokeColor=#6D1F00;sketch=1;curveFitting=1;jiggle=2;fillStyle=zigzag-line;align=center;verticalAlign=middle;fontFamily=Helvetica;fontSize=8;" vertex="1" parent="1">
          <mxGeometry x="490" y="240.63" width="30" height="59.37" as="geometry" />
        </mxCell>
        <mxCell id="dpI8m116e4qu7KSGH_1Q-11" value="" style="shape=curlyBracket;whiteSpace=wrap;html=1;rounded=1;flipH=1;labelPosition=right;verticalLabelPosition=middle;align=left;verticalAlign=middle;" vertex="1" parent="1">
          <mxGeometry x="1000" y="140" width="20" height="131.25" as="geometry" />
        </mxCell>
        <mxCell id="dpI8m116e4qu7KSGH_1Q-12" value="&lt;pre&gt;&lt;b&gt;&#39;4&lt;/b&gt;&lt;/pre&gt;" style="text;html=1;align=center;verticalAlign=middle;whiteSpace=wrap;rounded=0;" vertex="1" parent="1">
          <mxGeometry x="1020" y="183.12" width="25" height="45" as="geometry" />
        </mxCell>
        <mxCell id="dpI8m116e4qu7KSGH_1Q-13" value="" style="shape=curlyBracket;whiteSpace=wrap;html=1;rounded=1;flipH=1;labelPosition=right;verticalLabelPosition=middle;align=left;verticalAlign=middle;" vertex="1" parent="1">
          <mxGeometry x="1000" y="300" width="20" height="131.25" as="geometry" />
        </mxCell>
        <mxCell id="dpI8m116e4qu7KSGH_1Q-14" value="&lt;pre&gt;&lt;b&gt;&#39;4&lt;/b&gt;&lt;/pre&gt;" style="text;html=1;align=center;verticalAlign=middle;whiteSpace=wrap;rounded=0;" vertex="1" parent="1">
          <mxGeometry x="1020" y="343.13" width="25" height="45" as="geometry" />
        </mxCell>
        <mxCell id="dpI8m116e4qu7KSGH_1Q-15" value="" style="shape=curlyBracket;whiteSpace=wrap;html=1;rounded=1;flipH=1;labelPosition=right;verticalLabelPosition=middle;align=left;verticalAlign=middle;" vertex="1" parent="1">
          <mxGeometry x="1000" y="271.25" width="20" height="28.75" as="geometry" />
        </mxCell>
        <mxCell id="dpI8m116e4qu7KSGH_1Q-18" value="&lt;pre&gt;&lt;b&gt;6&quot;&lt;/b&gt;&lt;/pre&gt;" style="text;html=1;align=center;verticalAlign=middle;whiteSpace=wrap;rounded=0;" vertex="1" parent="1">
          <mxGeometry x="1020" y="262.5" width="25" height="45" as="geometry" />
        </mxCell>
        <mxCell id="dpI8m116e4qu7KSGH_1Q-21" value="" style="endArrow=none;dashed=1;html=1;rounded=0;" edge="1" parent="1">
          <mxGeometry width="50" height="50" relative="1" as="geometry">
            <mxPoint x="990" y="480" as="sourcePoint" />
            <mxPoint x="990" y="20" as="targetPoint" />
          </mxGeometry>
        </mxCell>
      </root>
    </mxGraphModel>
  </diagram>
</mxfile>
